<svg xmlns="http://www.w3.org/2000/svg" viewBox="0 0 152 88" role="img" aria-label="אפרכסת לכנסת">
  <title>אפרכסת לכנסת</title>
  <!--
    אוזן שמקשיבה לכנסת.

    ── מה נשמר מהגרסה של זויה ──────────────────────────────────────

    הדגל הוסר: האתר עוקב אחרי הכנסת בביקורתיות — מדד מורדים, מי לא
    עובד, מה הנתונים אינם אומרים — וסמל לאומי בלוגו קורא כהזדהות
    ממסדית. הבניין כבר מזהה את הכנסת בלי זה.

    הבניין צויר באותו משקל קו של האוזן. באיור מלא עם צללים ומדרגות
    השניים נראים כמו שני לוגואים שונים.

    סימן השאלה בתעלת האוזן הוא הלב של הסמל: הוא הופך "מקשיב" ל"שואל".

    ── מה השתנה ───────────────────────────────────────────────────

    צורת האוזן הותאמה ללוגו החדש שבסיידבר: מלאה ועגולה יותר, והתנוך
    מסתיים בוו שמתעקל שמאלה ולמעלה במקום ספירלה פתוחה. הסליל הפנימי
    גדל ועבר לחלק העליון-ימני, כמו בלוגו.

    הסליל אינו נוגע במתאר בכוונה. בגרסה קודמת הוא הגיע עד x=72 בעוד
    המתאר ב-75, ובגדלים קטנים השניים נמרחו לצורה אחת. עכשיו הוא נעצר
    ב-68 ונשאר נפרד גם ב-16 פיקסל.

    סימן השאלה יושב במרכז התעלה ולא בשוליה. כשהוא נדחק שמאלה הוא נראה
    צמוד למתאר, והסליל הכחול נותר הצורה היחידה שנקראת.

    זה צויר מחדש ולא הוקטן מהלוגו. הלוגו הוא איור עם גרדיאנטים
    וצללים, ובפאביקון של 16 פיקסל הוא נמרח לכתם — נבדק. כאן משקל
    הקו אחיד והצורה סגורה מספיק כדי להיקרא גם בגודל הזה.

    הצבעים הם נייבי #0E2140 ותכלת #3D6B8A ולא הקרם שבלוגו, כי
    הפאביקון יושב על לשונית בהירה וקרם עליה כמעט אינו נראה.
  -->
  <g fill="none" stroke-linecap="round" stroke-linejoin="round">

    <!-- גלי קול -->
    <g stroke="#3D6B8A" stroke-width="6">
      <path d="M4 26 L15 31" />
      <path d="M2 43 L14 43" />
      <path d="M4 60 L15 55" />
    </g>

    <!-- האוזן — מתאר פתוח, מלא למעלה ומצר כלפי מטה -->
    <path stroke="#0E2140" stroke-width="7"
          d="M44 79
             C32 76, 25 63, 25 45
             C25 25, 38 10, 54 10
             C69 10, 77 24, 75 42
             C73 55, 67 64, 60 66" />

    <!-- התנוך — הוו שמתעקל שמאלה ולמעלה -->
    <path stroke="#0E2140" stroke-width="7"
          d="M44 79
             C36 82, 28 78, 30 69" />

    <!-- הסליל הפנימי -->
    <path stroke="#3D6B8A" stroke-width="6"
          d="M44 36 C47 28, 56 25, 62 30 C68 35, 68 45, 64 50
             C61 54, 58 55, 55 54" />

    <!-- סימן השאלה בתעלה -->
    <path stroke="#0E2140" stroke-width="5"
          d="M38 46 C38 40, 43 36, 48 39 C53 42, 53 49, 48 52
             C45 54, 44 56, 44 60" />
    <circle cx="44" cy="68" r="2.6" fill="#0E2140" stroke="none" />

    <!-- הכנסת — אותו משקל קו -->
    <g stroke="#0E2140" stroke-width="6">
      <!-- הגג -->
      <path d="M86 34 L116 22 L146 34" />
      <!-- הכרכוב -->
      <path d="M86 40 L146 40" />
      <!-- העמודים -->
      <path d="M94 46 L94 68" />
      <path d="M109 46 L109 68" />
      <path d="M123 46 L123 68" />
      <path d="M138 46 L138 68" />
      <!-- הבסיס -->
      <path d="M86 74 L146 74" />
    </g>
  </g>
</svg>
